<svg width="30" height="26" viewBox="0 0 30 26" fill="none" xmlns="http://www.w3.org/2000/svg">
<path d="M7.86205 3.60907C7.86205 5.47429 6.32209 6.99591 4.41979 6.99591C2.5175 6.99591 0.977539 5.4841 0.977539 3.60907C0.977539 1.74385 2.5175 0.222221 4.41979 0.222221C6.32209 0.222221 7.86205 1.74385 7.86205 3.60907ZM7.35879 9.39125H1.54118V24.7842H7.35879V9.39125ZM16.6489 6.44616H11.0829V24.7842H16.6589C16.6589 24.7842 16.6589 17.9811 16.6589 15.1636C16.6589 12.5818 17.8768 11.0503 20.2018 11.0503C22.3457 11.0503 23.3723 12.5229 23.3723 15.1636C23.3723 17.8044 23.3723 24.7842 23.3723 24.7842H29.1597C29.1597 24.7842 29.1597 18.0891 29.1597 13.1708C29.1597 8.2623 26.3113 5.8866 22.3155 5.8866C18.3297 5.8866 16.6489 8.92003 16.6489 8.92003V6.44616Z" fill="#EEEEF0"/>
</svg>
